<svg width="132" height="30" viewBox="0 0 132 30" fill="none" xmlns="http://www.w3.org/2000/svg">
<path fill-rule="evenodd" clip-rule="evenodd" d="M28.8829 0.0333592L28.8917 0.0310211C29.5407 -0.144057 30.1463 0.449966 29.9686 1.10838L29.9665 1.11624C29.965 1.12208 29.9634 1.12793 29.9617 1.13376L29.9599 1.14032L21.1959 29.3811C21.0819 29.7485 20.7422 29.9992 20.3575 29.9999H20.3561C19.9719 29.9999 19.6321 29.7505 19.517 29.3839L16.0979 18.4945L10.5797 20.5513C10.2577 20.6714 9.89449 20.5929 9.65068 20.3491C9.40729 20.1057 9.32824 19.7427 9.44848 19.4201L11.5054 13.9018L0.615997 10.4829C0.248849 10.3676 -0.000643285 10.0272 1.24586e-06 9.64239C0.000645777 9.2576 0.25131 8.91799 0.618751 8.80391L28.8594 0.0398102L28.8658 0.0380524C28.8715 0.0363545 28.8772 0.03486 28.8829 0.0333679L28.8829 0.0333592ZM24.5867 3.20733L3.83063 9.64872L12.4839 12.3657L24.5867 3.20733ZM13.3877 13.8873L11.7686 18.2311L16.1123 16.612L24.5871 5.41262L13.3877 13.8873ZM17.634 17.5157L20.351 26.1691L26.7923 5.41297L17.634 17.5157ZM5.74366 18.0383C6.08714 17.6949 6.64395 17.6949 6.98731 18.0383C7.33073 18.3817 7.33073 18.9385 6.98731 19.2819L1.711 24.5582C1.36753 24.9017 0.81071 24.9017 0.46735 24.5582C0.123932 24.2148 0.123932 23.658 0.46735 23.3146L5.74366 18.0383ZM11.9614 23.0123C11.618 22.6688 11.0612 22.6688 10.7178 23.0123L5.44144 28.2886C5.09802 28.632 5.09802 29.1888 5.44144 29.5323C5.7848 29.8757 6.34168 29.8757 6.6851 29.5323L11.9614 24.256C12.3048 23.9125 12.3048 23.3558 11.9614 23.0123ZM6.47195 22.2841C6.81542 21.9407 7.37224 21.9407 7.7156 22.2841C8.05902 22.6275 8.05902 23.1843 7.7156 23.5278L1.50126 29.7421C1.15784 30.0855 0.600969 30.0855 0.25761 29.7421C-0.0858084 29.3986 -0.0858084 28.8419 0.25761 28.4984L6.47195 22.2841Z" fill="#1A75E8"/>
<path d="M47.8594 16.3513H43.3594V20.9998H41.0156V9.62479H48.4219V11.5232H43.3594V14.4607H47.8594V16.3513Z" fill="#0F1138"/>
<path d="M52.0156 20.9998H49.75V12.5467H52.0156V20.9998ZM49.6172 10.3592C49.6172 10.0206 49.7292 9.74197 49.9531 9.52322C50.1823 9.30447 50.4922 9.1951 50.8828 9.1951C51.2682 9.1951 51.5755 9.30447 51.8047 9.52322C52.0339 9.74197 52.1484 10.0206 52.1484 10.3592C52.1484 10.7029 52.0312 10.9842 51.7969 11.2029C51.5677 11.4217 51.263 11.531 50.8828 11.531C50.5026 11.531 50.1953 11.4217 49.9609 11.2029C49.7318 10.9842 49.6172 10.7029 49.6172 10.3592Z" fill="#0F1138"/>
<path d="M55.9609 12.5467L56.0312 13.5232C56.6354 12.768 57.4453 12.3904 58.4609 12.3904C59.3568 12.3904 60.0234 12.6534 60.4609 13.1795C60.8984 13.7055 61.1224 14.492 61.1328 15.5388V20.9998H58.875V15.5935C58.875 15.1144 58.7708 14.768 58.5625 14.5545C58.3542 14.3357 58.0078 14.2263 57.5234 14.2263C56.888 14.2263 56.4115 14.4972 56.0938 15.0388V20.9998H53.8359V12.5467H55.9609Z" fill="#0F1138"/>
<path d="M62.5 16.7107C62.5 15.393 62.7943 14.3435 63.3828 13.5623C63.9766 12.781 64.7865 12.3904 65.8125 12.3904C66.6354 12.3904 67.3151 12.6977 67.8516 13.3123V8.99979H70.1172V20.9998H68.0781L67.9688 20.1013C67.4062 20.8045 66.6823 21.156 65.7969 21.156C64.8021 21.156 64.0026 20.7654 63.3984 19.9842C62.7995 19.1977 62.5 18.1066 62.5 16.7107ZM64.7578 16.8748C64.7578 17.6665 64.8958 18.2732 65.1719 18.6951C65.4479 19.117 65.849 19.3279 66.375 19.3279C67.0729 19.3279 67.5651 19.0336 67.8516 18.4451V15.1092C67.5703 14.5206 67.0833 14.2263 66.3906 14.2263C65.3021 14.2263 64.7578 15.1092 64.7578 16.8748Z" fill="#0F1138"/>
<path d="M75.9375 14.7498L78.3047 9.62479H80.8672L77.1328 16.8748V20.9998H74.75V16.8748L71.0156 9.62479H73.5859L75.9375 14.7498Z" fill="#0F1138"/>
<path d="M80.8906 16.6951C80.8906 15.8566 81.0521 15.1092 81.375 14.4529C81.6979 13.7967 82.1615 13.2888 82.7656 12.9295C83.375 12.5701 84.0807 12.3904 84.8828 12.3904C86.0234 12.3904 86.9531 12.7394 87.6719 13.4373C88.3958 14.1352 88.7995 15.0831 88.8828 16.281L88.8984 16.8592C88.8984 18.156 88.5365 19.1977 87.8125 19.9842C87.0885 20.7654 86.1172 21.156 84.8984 21.156C83.6797 21.156 82.7057 20.7654 81.9766 19.9842C81.2526 19.2029 80.8906 18.1404 80.8906 16.7967V16.6951ZM83.1484 16.8592C83.1484 17.6612 83.2995 18.2758 83.6016 18.7029C83.9036 19.1248 84.3359 19.3357 84.8984 19.3357C85.4453 19.3357 85.8724 19.1274 86.1797 18.7107C86.487 18.2888 86.6406 17.617 86.6406 16.6951C86.6406 15.9086 86.487 15.2993 86.1797 14.867C85.8724 14.4347 85.4401 14.2185 84.8828 14.2185C84.3307 14.2185 83.9036 14.4347 83.6016 14.867C83.2995 15.2941 83.1484 15.9581 83.1484 16.8592Z" fill="#0F1138"/>
<path d="M95.3516 20.1404C94.7943 20.8175 94.0234 21.156 93.0391 21.156C92.1328 21.156 91.4401 20.8956 90.9609 20.3748C90.487 19.854 90.2448 19.0909 90.2344 18.0857V12.5467H92.4922V18.0076C92.4922 18.8878 92.8932 19.3279 93.6953 19.3279C94.4609 19.3279 94.987 19.0623 95.2734 18.531V12.5467H97.5391V20.9998H95.4141L95.3516 20.1404Z" fill="#0F1138"/>
<path d="M103.992 14.6638C103.685 14.6222 103.414 14.6013 103.18 14.6013C102.326 14.6013 101.766 14.8904 101.5 15.4685V20.9998H99.2422V12.5467H101.375L101.438 13.5545C101.891 12.7784 102.518 12.3904 103.32 12.3904C103.57 12.3904 103.805 12.4243 104.023 12.492L103.992 14.6638Z" fill="#0F1138"/>
<path d="M47.8594 16.3513H43.3594V20.9998H41.0156V9.62479H48.4219V11.5232H43.3594V14.4607H47.8594V16.3513Z" fill="#0F1138"/>
<path d="M52.0156 20.9998H49.75V12.5467H52.0156V20.9998ZM49.6172 10.3592C49.6172 10.0206 49.7292 9.74197 49.9531 9.52322C50.1823 9.30447 50.4922 9.1951 50.8828 9.1951C51.2682 9.1951 51.5755 9.30447 51.8047 9.52322C52.0339 9.74197 52.1484 10.0206 52.1484 10.3592C52.1484 10.7029 52.0312 10.9842 51.7969 11.2029C51.5677 11.4217 51.263 11.531 50.8828 11.531C50.5026 11.531 50.1953 11.4217 49.9609 11.2029C49.7318 10.9842 49.6172 10.7029 49.6172 10.3592Z" fill="#0F1138"/>
<path d="M55.9609 12.5467L56.0312 13.5232C56.6354 12.768 57.4453 12.3904 58.4609 12.3904C59.3568 12.3904 60.0234 12.6534 60.4609 13.1795C60.8984 13.7055 61.1224 14.492 61.1328 15.5388V20.9998H58.875V15.5935C58.875 15.1144 58.7708 14.768 58.5625 14.5545C58.3542 14.3357 58.0078 14.2263 57.5234 14.2263C56.888 14.2263 56.4115 14.4972 56.0938 15.0388V20.9998H53.8359V12.5467H55.9609Z" fill="#0F1138"/>
<path d="M62.5 16.7107C62.5 15.393 62.7943 14.3435 63.3828 13.5623C63.9766 12.781 64.7865 12.3904 65.8125 12.3904C66.6354 12.3904 67.3151 12.6977 67.8516 13.3123V8.99979H70.1172V20.9998H68.0781L67.9688 20.1013C67.4062 20.8045 66.6823 21.156 65.7969 21.156C64.8021 21.156 64.0026 20.7654 63.3984 19.9842C62.7995 19.1977 62.5 18.1066 62.5 16.7107ZM64.7578 16.8748C64.7578 17.6665 64.8958 18.2732 65.1719 18.6951C65.4479 19.117 65.849 19.3279 66.375 19.3279C67.0729 19.3279 67.5651 19.0336 67.8516 18.4451V15.1092C67.5703 14.5206 67.0833 14.2263 66.3906 14.2263C65.3021 14.2263 64.7578 15.1092 64.7578 16.8748Z" fill="#0F1138"/>
<path d="M75.9375 14.7498L78.3047 9.62479H80.8672L77.1328 16.8748V20.9998H74.75V16.8748L71.0156 9.62479H73.5859L75.9375 14.7498Z" fill="#0F1138"/>
<path d="M80.8906 16.6951C80.8906 15.8566 81.0521 15.1092 81.375 14.4529C81.6979 13.7967 82.1615 13.2888 82.7656 12.9295C83.375 12.5701 84.0807 12.3904 84.8828 12.3904C86.0234 12.3904 86.9531 12.7394 87.6719 13.4373C88.3958 14.1352 88.7995 15.0831 88.8828 16.281L88.8984 16.8592C88.8984 18.156 88.5365 19.1977 87.8125 19.9842C87.0885 20.7654 86.1172 21.156 84.8984 21.156C83.6797 21.156 82.7057 20.7654 81.9766 19.9842C81.2526 19.2029 80.8906 18.1404 80.8906 16.7967V16.6951ZM83.1484 16.8592C83.1484 17.6612 83.2995 18.2758 83.6016 18.7029C83.9036 19.1248 84.3359 19.3357 84.8984 19.3357C85.4453 19.3357 85.8724 19.1274 86.1797 18.7107C86.487 18.2888 86.6406 17.617 86.6406 16.6951C86.6406 15.9086 86.487 15.2993 86.1797 14.867C85.8724 14.4347 85.4401 14.2185 84.8828 14.2185C84.3307 14.2185 83.9036 14.4347 83.6016 14.867C83.2995 15.2941 83.1484 15.9581 83.1484 16.8592Z" fill="#0F1138"/>
<path d="M95.3516 20.1404C94.7943 20.8175 94.0234 21.156 93.0391 21.156C92.1328 21.156 91.4401 20.8956 90.9609 20.3748C90.487 19.854 90.2448 19.0909 90.2344 18.0857V12.5467H92.4922V18.0076C92.4922 18.8878 92.8932 19.3279 93.6953 19.3279C94.4609 19.3279 94.987 19.0623 95.2734 18.531V12.5467H97.5391V20.9998H95.4141L95.3516 20.1404Z" fill="#0F1138"/>
<path d="M103.992 14.6638C103.685 14.6222 103.414 14.6013 103.18 14.6013C102.326 14.6013 101.766 14.8904 101.5 15.4685V20.9998H99.2422V12.5467H101.375L101.438 13.5545C101.891 12.7784 102.518 12.3904 103.32 12.3904C103.57 12.3904 103.805 12.4243 104.023 12.492L103.992 14.6638Z" fill="#0F1138"/>
<path d="M110.602 9.62479H112.945V17.4998C112.945 18.2237 112.784 18.8644 112.461 19.4217C112.143 19.9737 111.693 20.4008 111.109 20.7029C110.526 21.005 109.867 21.156 109.133 21.156C107.93 21.156 106.992 20.8513 106.32 20.242C105.648 19.6274 105.313 18.7602 105.313 17.6404H107.672C107.672 18.1977 107.789 18.6092 108.023 18.8748C108.258 19.1404 108.628 19.2732 109.133 19.2732C109.581 19.2732 109.938 19.1196 110.203 18.8123C110.469 18.505 110.602 18.0675 110.602 17.4998V9.62479Z" fill="#1A75E8"/>
<path d="M114.453 16.6951C114.453 15.8566 114.615 15.1092 114.938 14.4529C115.26 13.7967 115.724 13.2888 116.328 12.9295C116.938 12.5701 117.643 12.3904 118.445 12.3904C119.586 12.3904 120.516 12.7394 121.234 13.4373C121.958 14.1352 122.362 15.0831 122.445 16.281L122.461 16.8592C122.461 18.156 122.099 19.1977 121.375 19.9842C120.651 20.7654 119.68 21.156 118.461 21.156C117.242 21.156 116.268 20.7654 115.539 19.9842C114.815 19.2029 114.453 18.1404 114.453 16.7967V16.6951ZM116.711 16.8592C116.711 17.6612 116.862 18.2758 117.164 18.7029C117.466 19.1248 117.898 19.3357 118.461 19.3357C119.008 19.3357 119.435 19.1274 119.742 18.7107C120.05 18.2888 120.203 17.617 120.203 16.6951C120.203 15.9086 120.05 15.2993 119.742 14.867C119.435 14.4347 119.003 14.2185 118.445 14.2185C117.893 14.2185 117.466 14.4347 117.164 14.867C116.862 15.2941 116.711 15.9581 116.711 16.8592Z" fill="#1A75E8"/>
<path d="M131.469 16.8513C131.469 18.2055 131.18 19.2628 130.602 20.0232C130.023 20.7784 129.216 21.156 128.18 21.156C127.263 21.156 126.531 20.8045 125.984 20.1013L125.883 20.9998H123.852V8.99979H126.109V13.3045C126.63 12.6951 127.315 12.3904 128.164 12.3904C129.195 12.3904 130.003 12.7706 130.586 13.531C131.175 14.2862 131.469 15.3513 131.469 16.7263V16.8513ZM129.211 16.6873C129.211 15.8331 129.076 15.2107 128.805 14.8201C128.534 14.4243 128.13 14.2263 127.594 14.2263C126.875 14.2263 126.38 14.5206 126.109 15.1092V18.4451C126.385 19.0388 126.885 19.3357 127.609 19.3357C128.339 19.3357 128.818 18.9763 129.047 18.2576C129.156 17.9138 129.211 17.3904 129.211 16.6873Z" fill="#1A75E8"/>
</svg>
